<svg xmlns="http://www.w3.org/2000/svg" fill="none" viewBox="0 0 24 24" id="Django--Streamline-Svg-Logos" height="24" width="24">
  <desc>
    Django Streamline Icon: https://streamlinehq.com
  </desc>
  <path fill="#03ff9d" d="M18.007725 9.796075c0.55085 0 1.059925 0.058375 1.6775 0.183525l-0.440075 0.927025c-0.342175 -0.06675 -0.0274 -0.00895 -0.285975 -0.033975v0.133575l0.01665 0.54235 0.008275 0.70105c0.00835 0.1752 0.00835 0.350475 0.01675 0.525725v0.350525c0 1.101625 -0.0918 1.618975 -0.367175 2.044575 -0.4006 0.62595 -1.09325 0.9347 -2.077975 0.9347 -0.50075 0 -0.934625 -0.0751 -1.385325 -0.2504v-1.185h0.00005c0.450725 0.23365 0.901325 0.342075 1.376975 0.342075 0.842825 0 1.2017 -0.342075 1.2017 -1.15995v-0.02505c-0.25035 0.125125 -0.50075 0.17525 -0.834475 0.17525 -1.12665 0 -1.84445 -0.742725 -1.84445 -1.9194 0 -1.460525 1.059925 -2.2866 2.93755 -2.2866Zm-11.657375 0.08345V12.85875c0 1.0265 -0.0751 1.518825 -0.3004 1.944475 -0.208675 0.409 -0.4841 0.667625 -1.05155 0.9514l-1.1934 -0.5675c0.5675 -0.267025 0.842875 -0.500625 1.0181 -0.8596 0.18365 -0.367175 0.2421 -0.7928 0.2421 -1.91105V9.879525h1.28515Zm15.33 -0.108475C22.9655 9.77105 23.75 10.5806 23.75 11.89075c0 1.343675 -0.817775 2.186525 -2.119725 2.186525 -1.285225 0 -2.078025 -0.809525 -2.078025 -2.11135 0.00005 -1.352075 0.817925 -2.194875 2.1281 -2.194875Zm-12.85125 0.01675c0.659275 0 1.0932 0.175175 1.2852 0.51735 0.108425 0.19195 0.1418 0.442275 0.1418 0.97645v2.612c-0.5759 0.08345 -1.301875 0.1419 -1.83595 0.1419 -1.076525 0 -1.560625 -0.375675 -1.560625 -1.210125 0 -0.90135 0.6426 -1.318575 2.219925 -1.45215V11.0895c0 -0.23365 -0.116825 -0.317025 -0.442325 -0.317025 -0.47565 0 -1.009775 0.1335 -1.51055 0.39225v-0.993125h0.00005c0.56755 -0.266975 1.10995 -0.3838 1.702475 -0.3838Zm-4.52325 -1.892975v5.94875c-0.6593 0.125175 -1.143325 0.17525 -1.66905 0.17525C1.0678325 14.018825 0.25 13.309525 0.25 11.949175c0 -1.310225 0.867955 -2.161375 2.211505 -2.161375 0.20862 0 0.36717 0.016625 0.559145 0.0667v-1.959675h1.2852Zm8.595725 1.892975c0.659275 0 1.134975 0.15015 1.418825 0.44225 0.267025 0.275325 0.350425 0.57575 0.350425 1.21845v2.5202h-1.2852v-2.47015c0 -0.492325 -0.1669 -0.676025 -0.62585 -0.676025 -0.17525 0 -0.3338 0.0167 -0.592575 0.0918v3.054375h-1.28515V10.0798c0.759375 -0.200275 1.385275 -0.292 2.019525 -0.292Zm-3.763725 2.4284c-0.851275 0.08345 -1.12665 0.217025 -1.12665 0.5508 0 0.25035 0.158625 0.367175 0.5091 0.367175 0.191975 0 0.36715 -0.01665 0.61755 -0.05835v-0.859625Zm12.525875 -1.41035c-0.50915 0 -0.8013 0.409 -0.8013 1.118225 0.00005 0.709425 0.29215 1.1183 0.7928 1.1183 0.492425 0 0.78455 -0.40895 0.78455 -1.1183 0 -0.70095 -0.283775 -1.118225 -0.77605 -1.118225Zm-19.077 0.016675c-0.650935 0 -1.0265 0.4006 -1.0265 1.10155 0 0.684375 0.358875 1.0599 1.01815 1.0599 0.141825 0 0.2587 -0.00835 0.442275 -0.033325v-2.061425c-0.1502 -0.05 -0.275375 -0.0667 -0.433925 -0.0667Zm14.26115 0.191875c-0.3087 0.1753 -0.467375 0.49245 -0.467375 0.943075 0 0.642625 0.3172 1.0098 0.88465 1.0098 0.17525 0 0.31715 -0.033425 0.484 -0.08345v-0.44225c0 -0.150225 -0.0083 -0.317225 -0.0083 -0.4924l-0.0083 -0.592475 -0.008375 -0.425625v-0.1002h-0.133575c-0.2503 -0.00835 -0.54235 0.05835 -0.742725 0.183525ZM6.35035 7.901675v1.318575h-1.28515v-1.318575h1.28515Z" stroke-width="0.25"></path>
</svg>
